<?xml version="1.0" encoding="utf-8"?>
<!-- Generator: Adobe Illustrator 26.0.2, SVG Export Plug-In . SVG Version: 6.00 Build 0)  -->
<!DOCTYPE svg PUBLIC "-//W3C//DTD SVG 1.1//EN" "http://www.w3.org/Graphics/SVG/1.1/DTD/svg11.dtd" [
	<!ENTITY ns_extend "http://ns.adobe.com/Extensibility/1.0/">
	<!ENTITY ns_ai "http://ns.adobe.com/AdobeIllustrator/10.0/">
	<!ENTITY ns_graphs "http://ns.adobe.com/Graphs/1.0/">
	<!ENTITY ns_vars "http://ns.adobe.com/Variables/1.0/">
	<!ENTITY ns_imrep "http://ns.adobe.com/ImageReplacement/1.0/">
	<!ENTITY ns_sfw "http://ns.adobe.com/SaveForWeb/1.0/">
	<!ENTITY ns_custom "http://ns.adobe.com/GenericCustomNamespace/1.0/">
	<!ENTITY ns_adobe_xpath "http://ns.adobe.com/XPath/1.0/">
]>
<svg version="1.1" id="Layer_1" xmlns:x="&ns_extend;" xmlns:i="&ns_ai;" xmlns:graph="&ns_graphs;"
	 xmlns="http://www.w3.org/2000/svg" xmlns:xlink="http://www.w3.org/1999/xlink" x="0px" y="0px" viewBox="0 0 994.6 995.7"
	 style="enable-background:new 0 0 994.6 995.7;" xml:space="preserve">
	<g>
		<path class="st0" d="M828.4,0H166.2C74.4,0,0,74.4,0,166.2v662.2c0,91.8,74.4,166.2,166.2,166.2h662.2
			c91.8,0,166.2-74.4,166.2-166.2V166.2C994.6,74.4,920.2,0,828.4,0z M813.8,761.3c0,29-23.5,52.5-52.5,52.5h-528
			c-29,0-52.5-23.5-52.5-52.5v-528c0-29,23.5-52.5,52.5-52.5h528c29,0,52.5,23.5,52.5,52.5V761.3z M391.8,632.3
			c-16.7,0-30.1-13.5-30.1-30.2V391.3c0-16.7,13.4-30.3,30.1-30.3h211.1c16.6,0,30.1,13.5,30.1,30.3V602c0,16.7-13.5,30.2-30.1,30.2
			H391.8z"/>
	</g>
</svg>
